<?xml version="1.0" encoding="utf-8"?>
<!-- Generator: Adobe Illustrator 26.0.0, SVG Export Plug-In . SVG Version: 6.00 Build 0)  -->
<svg version="1.1" xmlns="http://www.w3.org/2000/svg" xmlns:xlink="http://www.w3.org/1999/xlink" x="0px" y="0px"
	 viewBox="0 0 512 512" style="enable-background:new 0 0 512 512;" xml:space="preserve">
<style type="text/css">
	.st0{fill:#FFFFFF;}
	.st1{fill:#AAAAAA;}
</style>
<g id="图层_2">
	<path class="st0" d="M25.4,9.2c-10.1,0-20.8,6-20.8,16.1v378.2c0,10.1,10.6,20.8,20.8,20.8h297.5c10.1,0,22.2,6.3,26.8,15.3
		l24.8,48.4c4.6,9,12.1,8.8,16.7-0.3l24.8-48c4.6-9,16.7-15.5,26.8-15.5h43.8c10.1,0,16.1-10.6,16.1-20.8V25.4
		c0-10.1-6-16.1-16.1-16.1H25.4z"/>
	<g>
		<path class="st1" d="M382.8,501.2c-5.8,0-11.1-3.9-14.5-10.6l-24.8-48.9c-3.4-6.8-13.1-12.7-20.6-12.7H25.4
			c-14,0-25.3-11.4-25.4-25.4V25.4C0,11.4,11.4,0,25.4,0h461.3c14,0,25.4,11.4,25.4,25.4v378.2c0,14-11.4,25.4-25.4,25.4h-43.8
			c-7.6,0-17.2,5.9-20.6,12.7l-24.8,49C394,497.3,388.7,501.2,382.8,501.2z M25.4,13.8c-6.4,0-11.5,5.2-11.5,11.5v378.2
			c0,6.4,5.2,11.5,11.5,11.5h297.5c12.7,0,27.2,8.9,33,20.2l24.8,48.9c1.1,2.2,2.1,2.9,2.4,3c-0.1-0.1,0.9-0.9,2-3l24.8-49
			c5.8-11.3,20.2-20.2,33-20.2h43.8c6.4,0,11.5-5.2,11.5-11.5V25.4c0-6.4-5.2-11.5-11.5-11.5H25.4z"/>
		<path d="M465.9,512H258.3c-3.8,0-6.9-3.1-6.9-6.9c0-3.8,3.1-6.9,6.9-6.9h207.6c3.8,0,6.9,3.1,6.9,6.9
			C472.8,508.9,469.7,512,465.9,512z M216.8,512h-83c-3.8,0-6.9-3.1-6.9-6.9c0-3.8,3.1-6.9,6.9-6.9h83c3.8,0,6.9,3.1,6.9,6.9
			C223.7,508.9,220.6,512,216.8,512z"/>
	</g>
</g>
<g id="Layer_1">
	<g>
		<path d="M81.8,256.7h181.6c2.9,0,5.2-2.3,5.2-5.2V69.9c0-2.9-2.3-5.2-5.2-5.2H81.8c-2.9,0-5.2,2.3-5.2,5.2v181.6
			C76.6,254.4,78.3,256.7,81.8,256.7z M258.2,75.1v101.4l-33.7-50.1c-2.5-3.8-6.8-6-11.3-6s-8.8,2.2-11.3,6l-30.3,45.1l-9.9-14.7
			c-2.5-3.8-6.8-6-11.3-6s-8.8,2.3-11.3,6c0,0,0,0,0,0L87,234.5V75.1L258.2,75.1z"/>
		<path d="M122.5,132.5c11.7,0,21.1-9.5,21.1-21.1c0-11.7-9.5-21.1-21.1-21.1s-21.1,9.5-21.1,21.1
			C101.3,123.1,110.8,132.5,122.5,132.5z"/>
	</g>
	<path d="M425.6,186.9H292.2c-2.9,0-5.2,2.3-5.2,5.2v59.5c0,2.9,2.3,5.2,5.2,5.2h133.4c2.9,0,5.2-2.3,5.2-5.2V192
		C430.8,189.2,428.5,186.9,425.6,186.9z M420.4,246.3h-123v-49.1h123V246.3z"/>
	<g>
		<path d="M292.2,75.2h133.4c6.7,0,6.7-10.4,0-10.4H292.2C285.5,64.9,285.5,75.2,292.2,75.2z"/>
		<path d="M292.2,104.8H403c6.7,0,6.7-10.4,0-10.4H292.2C285.5,94.4,285.5,104.8,292.2,104.8z"/>
		<path d="M425.6,123.9H292.2c-6.7,0-6.7,10.4,0,10.4h133.4C432.3,134.3,432.3,123.9,425.6,123.9z"/>
		<path d="M292.2,163.8h70.7c6.7,0,6.7-10.4,0-10.4h-70.7C285.5,153.4,285.5,163.8,292.2,163.8z"/>
	</g>
	<g>
		<path d="M425.6,278.5H81.8c-6.7,0-6.7,10.4,0,10.4h343.8C432.3,288.9,432.3,278.5,425.6,278.5z"/>
		<path d="M425.6,311H81.8c-6.7,0-6.7,10.4,0,10.4h343.8C432.3,321.4,432.3,311,425.6,311z"/>
		<path d="M81.8,353.9h271.3c6.7,0,6.7-10.4,0-10.4H81.8C75.1,343.5,75.1,353.9,81.8,353.9z"/>
	</g>
</g>
</svg>
