<svg
    xmlns="http://www.w3.org/2000/svg"
    viewBox="0 0 111 111"
    id="icon-discussion"
>
    <path
        d="M5.5 2C3.3 2 1 3.3 1 5.5v82C1 89.7 3.3 92 5.5 92H70c2.2 0 4.81 1.36 5.81 3.32l5.38 10.49c.99 1.96 2.62 1.9 3.62-.06l5.38-10.4C91.19 93.39 93.8 92 96 92h9.5c2.2 0 3.5-2.3 3.5-4.5v-82c0-2.2-1.3-3.5-3.5-3.5H5.5z"
        fill="#fff"
    ></path>
    <path
        fill="#aaa"
        d="M83 108.65c-1.26 0-2.41-.84-3.15-2.29l-5.38-10.61C73.73 94.28 71.64 93 70 93H5.5A5.51 5.51 0 0 1 0 87.5v-82C0 2.47 2.47 0 5.5 0h100c3.03 0 5.5 2.47 5.5 5.5v82c0 3.03-2.47 5.5-5.5 5.5H96c-1.64 0-3.73 1.28-4.47 2.75l-5.38 10.62c-.74 1.45-1.89 2.28-3.15 2.28zM5.5 3A2.5 2.5 0 0 0 3 5.5v82A2.5 2.5 0 0 0 5.5 90H70c2.76 0 5.9 1.93 7.15 4.39L82.53 105c.24.47.46.63.51.66-.03-.02.19-.19.43-.66l5.38-10.62C90.1 91.93 93.24 90 96 90h9.5a2.5 2.5 0 0 0 2.5-2.5v-82a2.5 2.5 0 0 0-2.5-2.5H5.5z"
    ></path>
    <path
        d="M101 111H56c-.83 0-1.5-.67-1.5-1.5s.67-1.5 1.5-1.5h45c.83 0 1.5.67 1.5 1.5s-.67 1.5-1.5 1.5zm-54 0H29c-.83 0-1.5-.67-1.5-1.5s.67-1.5 1.5-1.5h18c.83 0 1.5.67 1.5 1.5s-.67 1.5-1.5 1.5zm36-81H20c-.83 0-1.5-.67-1.5-1.5S19.17 27 20 27h63c.83 0 1.5.67 1.5 1.5S83.83 30 83 30zM65 48H20c-.83 0-1.5-.67-1.5-1.5S19.17 45 20 45h45c.83 0 1.5.67 1.5 1.5S65.83 48 65 48zm18 18H20c-.83 0-1.5-.67-1.5-1.5S19.17 63 20 63h63c.83 0 1.5.67 1.5 1.5S83.83 66 83 66z"
    ></path>
</svg>