<?xml version="1.0" standalone="no"?>
<!DOCTYPE svg PUBLIC "-//W3C//DTD SVG 1.1//EN" "http://www.w3.org/Graphics/SVG/1.1/DTD/svg11.dtd"> 
<svg t="1667215497024" class="icon" viewBox="0 0 1024 1024" version="1.1" xmlns="http://www.w3.org/2000/svg" p-id="7060" xmlns:xlink="http://www.w3.org/1999/xlink" width="32" height="32" fill="#ffffff">
    <path d="M805.7856 624.4352H218.2144C117.8624 624.4352 35.84 706.56 35.84 806.8096c0 100.352 82.1248 182.3744 182.3744 182.3744h587.4688c100.352 0 182.3744-82.1248 182.3744-182.3744 0.1024-100.2496-81.92-182.3744-182.272-182.3744z m0 287.9488H483.7376c32.8704-23.6544 54.3744-62.2592 54.3744-105.472s-21.504-81.8176-54.3744-105.472h322.048c58.2656 0 105.472 47.4112 105.472 105.472 0 58.1632-47.4112 105.472-105.472 105.472zM275.456 586.24c9.8304 0 19.6608-3.6864 27.2384-11.264L777.3184 100.352c14.9504-14.9504 14.9504-39.424 0-54.3744-14.9504-14.9504-39.424-14.9504-54.3744 0L248.2176 520.6016c-14.9504 14.9504-14.9504 39.424 0 54.3744 7.5776 7.5776 17.408 11.264 27.2384 11.264zM675.1232 355.7376c-62.5664 0-113.4592 50.7904-113.4592 113.4592 0 62.5664 50.7904 113.4592 113.4592 113.4592s113.4592-50.7904 113.4592-113.4592c-0.1024-62.464-50.8928-113.4592-113.4592-113.4592z m0 149.9136c-20.1728 0-36.352-16.384-36.352-36.352 0-20.1728 16.384-36.352 36.352-36.352s36.352 16.384 36.352 36.352c0.1024 20.0704-16.1792 36.352-36.352 36.352zM351.9488 265.1136c62.5664 0 113.4592-50.7904 113.4592-113.4592S414.6176 38.1952 351.9488 38.1952 238.4896 88.9856 238.4896 151.6544s50.9952 113.4592 113.4592 113.4592z m0-149.9136c20.1728 0 36.352 16.384 36.352 36.352s-16.384 36.352-36.352 36.352c-20.1728 0-36.352-16.384-36.352-36.352s16.2816-36.352 36.352-36.352z" p-id="7061"></path>
</svg>