<?xml version="1.0" standalone="no"?>
<!DOCTYPE svg PUBLIC "-//W3C//DTD SVG 1.1//EN" "http://www.w3.org/Graphics/SVG/1.1/DTD/svg11.dtd">
<svg t="1666676453264" class="icon" viewBox="0 0 1024 1024" version="1.1" xmlns="http://www.w3.org/2000/svg" p-id="8839" xmlns:xlink="http://www.w3.org/1999/xlink"  width="35" height="35" fill="#ffffff">
    <path d="M545.5 682.6c-9 5-12.1 16.3-7.1 25.3l63.5 113.4H424l104.6-178.5c2.2-3.8 2.9-8 2.3-12.1 0.2-1 0.3-2 0.3-3.1v-238l86-146.8c3.4-5.8 3.4-12.9 0.1-18.6-3.3-5.8-9.5-9.4-16.1-9.4H424c-6.7 0-12.8 3.6-16.1 9.4-3.3 5.8-3.3 12.9 0.1 18.7l49.2 83.6c5.2 8.9 16.6 11.8 25.5 6.6 8.8-5.2 11.8-16.6 6.6-25.4L456.5 252h112.2l-72.2 123.1c-0.2 0.3-0.3 0.7-0.5 1-0.3 0.6-0.6 1.2-0.8 1.8l-0.6 1.8c-0.1 0.6-0.3 1.1-0.4 1.7-0.1 0.7-0.2 1.4-0.2 2.1 0 0.3-0.1 0.7-0.1 1V628.3L375.5 830.6c-3.4 5.7-3.4 12.9-0.1 18.6 3.3 5.8 9.5 9.3 16.1 9.3h242.1c6.6 0 12.7-3.5 16-9.2 3.3-5.7 3.4-12.7 0.2-18.5l-79-141.1c-5-8.9-16.3-12.1-25.3-7.1z"  p-id="8840"></path>
    <path d="M675.1 679.2L619.9 585V439.6l55.2-94.2 113.5-193.7c5.4-8.6 8.5-18.7 8.5-29.5 0-30.8-24.9-55.8-55.8-55.8H283.9c-20 0-38.4 10.7-48.4 28-9.9 17.3-9.8 38.7 0.3 56l114.3 195.1 55.2 94.2v145.5l-55.2 94.1-114.4 195c-10.1 17.3-10.2 38.6-0.3 55.9 9.9 17.3 28.4 28 48.4 28h457.5c20 0 38.4-10.7 48.4-28 9.9-17.3 9.8-38.7-0.3-55.9L675.1 679.2zM512.6 902.5H283.8l114.3-195.1L461 600.2V424.5l-62.8-107.3-114.3-195.1h457.4L626.9 317.2l-62.8 107.2v175.7l62.8 107.2 114.3 195.1H512.6z"  p-id="8841"></path>
</svg>